@startuml CD-exam2019

' definitions
' -----------
hide circle
hide empty methods
hide empty attributes

class fi as "FormInscription"
class ic as "InscriptionControl"
class fe as "FicheEtudiant"
class cat as "Catalogue"
class cours as "Cours"

class fi {
    login(FicheEtudiant)`
    choisir(Cours,Catalogue)
}

class ic  {
    login(FicheEtudiant)
}

class cat {
    chercherCours(Cours)
}

fi ..> fe
fi ..> cours
fi ..> cat
ic ..> fe

cat --> "*" cours

cours --> fe

fi -> ic
@enduml
